<?xml version="1.0" standalone="no"?>
<!DOCTYPE svg PUBLIC "-//W3C//DTD SVG 20010904//EN"
 "http://www.w3.org/TR/2001/REC-SVG-20010904/DTD/svg10.dtd">
<svg version="1.0" xmlns="http://www.w3.org/2000/svg"
 width="512.000000pt" height="512.000000pt" viewBox="0 0 512.000000 512.000000"
 preserveAspectRatio="xMidYMid meet">
<metadata>
Created by potrace 1.11, written by Peter Selinger 2001-2013
</metadata>
<g transform="translate(0.000000,512.000000) scale(0.100000,-0.100000)"
fill="#000000" stroke="none">
<path d="M2379 5116 c-2 -2 -38 -6 -79 -10 -98 -9 -106 -10 -320 -52 -57 -11
-239 -67 -329 -101 -272 -102 -570 -283 -788 -478 -114 -103 -236 -230 -293
-305 -14 -18 -29 -38 -35 -44 -82 -92 -246 -369 -323 -546 -61 -142 -131 -351
-146 -443 -3 -15 -7 -35 -10 -45 -3 -9 -7 -34 -11 -56 -3 -21 -7 -41 -9 -45
-4 -6 -12 -72 -26 -201 -8 -77 -5 -465 4 -510 2 -14 7 -47 10 -75 17 -146 74
-375 136 -539 312 -830 1019 -1436 1885 -1615 186 -39 316 -50 560 -47 254 4
409 24 634 86 944 257 1668 1051 1841 2018 44 247 48 591 11 837 -70 461 -274
909 -574 1263 -305 359 -675 614 -1123 773 -45 16 -90 30 -100 32 -11 2 -26 7
-34 10 -23 9 -178 44 -245 56 -57 10 -76 13 -170 27 -44 6 -460 15 -466 10z"/>
</g>
</svg>
